# ProBuilder 4.4.0
# https://unity3d.com/unity/features/worldbuilding/probuilder
# 2020/10/16 2:15:47

mtllib ./Palasol_Open.mtl
o Palasol_Open

g Palasol_Open
v -0.8 -0.1499996 0
v -0.6928203 -0.1499996 0.4
v 0 0.1500004 0
v 0 0.125494 0
v -0.4 -0.1499996 0.6928204
v 5.960464E-08 -0.1499996 0.8
v 0.4 -0.1499996 0.6928203
v 0.6928203 -0.1499996 0.4000001
v 0.8 -0.1499996 -6.993822E-08
v 0.6928203 -0.1499996 -0.4
v 0.3999999 -0.1499996 -0.6928204
v 0 -0.1499996 -0.8
v -0.3999999 -0.1499996 -0.6928204
v -0.6928203 -0.1499996 -0.4000002

vt 0 0
vt 0.4141105 5.957643E-10
vt 0.2070553 0.8289319
vt -0.8052459 -0.01031285
vt -0.7039068 0.3912066
vt 0.0408609 -0.01031285
vt -0.7084691 0.3828824
vt -0.4245321 0.6843244
vt 0.03067645 -0.02889504
vt -0.4120903 0.691888
vt -0.01378232 0.805194
vt 0.01153067 -0.04053409
vt 0.01378244 0.805194
vt 0.4120904 0.6918879
vt -0.01153067 -0.04053408
vt 0.4245321 0.6843244
vt 0.708469 0.3828824
vt -0.03067645 -0.02889504
vt 0.7039067 0.3912067
vt 0.8052459 -0.01031292
vt -0.0408609 -0.01031285
vt 0.8052459 0.01031279
vt 0.7039067 -0.3912066
vt -0.0408609 0.01031286
vt 0.708469 -0.3828824
vt 0.424532 -0.6843244
vt -0.03067646 0.02889504
vt 0.4120902 -0.691888
vt 0.01378238 -0.805194
vt -0.01153067 0.04053408
vt -0.01378238 -0.805194
vt -0.4120903 -0.691888
vt 0.01153067 0.04053408
vt -0.424532 -0.6843244
vt -0.708469 -0.3828825
vt 0.03067645 0.02889505
vt -0.7039067 -0.3912068
vt -0.8052459 0.01031285
vt 0.0408609 0.01031285

vn -0.3495797 0.9322125 0.09366961
vn 0.3243693 -0.9419291 -0.08691451
vn -0.2559101 0.9322125 0.2559101
vn 0.2374548 -0.9419291 -0.2374548
vn -0.09366956 0.9322125 0.3495797
vn 0.08691446 -0.9419291 -0.3243693
vn 0.09366962 0.9322125 0.3495797
vn -0.08691452 -0.9419291 -0.3243693
vn 0.2559101 0.9322125 0.2559101
vn -0.2374548 -0.9419291 -0.2374548
vn 0.3495797 0.9322125 0.09366964
vn -0.3243693 -0.9419291 -0.08691454
vn 0.3495797 0.9322125 -0.09366969
vn -0.3243693 -0.9419291 0.08691458
vn 0.2559101 0.9322125 -0.2559101
vn -0.2374549 -0.9419291 0.2374548
vn 0.09366958 0.9322125 -0.3495797
vn -0.08691449 -0.9419291 0.3243693
vn -0.09366957 0.9322125 -0.3495797
vn 0.08691448 -0.9419291 0.3243693
vn -0.2559101 0.9322125 -0.2559101
vn 0.2374548 -0.9419291 0.2374548
vn -0.3495797 0.9322125 -0.09366963
vn 0.3243693 -0.9419291 0.08691453

usemtl 傘
f 1/1/1 2/2/1 3/3/1
f 4/6/2 2/5/2 1/4/2
f 2/1/3 5/2/3 3/3/3
f 4/9/4 5/8/4 2/7/4
f 5/1/5 6/2/5 3/3/5
f 4/12/6 6/11/6 5/10/6
f 6/1/7 7/2/7 3/3/7
f 4/15/8 7/14/8 6/13/8
f 7/1/9 8/2/9 3/3/9
f 4/18/10 8/17/10 7/16/10
f 8/1/11 9/2/11 3/3/11
f 4/21/12 9/20/12 8/19/12
f 9/1/13 10/2/13 3/3/13
f 4/24/14 10/23/14 9/22/14
f 10/1/15 11/2/15 3/3/15
f 4/27/16 11/26/16 10/25/16
f 11/1/17 12/2/17 3/3/17
f 4/30/18 12/29/18 11/28/18
f 12/1/19 13/2/19 3/3/19
f 4/33/20 13/32/20 12/31/20
f 13/1/21 14/2/21 3/3/21
f 4/36/22 14/35/22 13/34/22
f 14/1/23 1/2/23 3/3/23
f 4/39/24 1/38/24 14/37/24

