# ProBuilder 4.4.0
# https://unity3d.com/unity/features/worldbuilding/probuilder
# 2020/10/16 2:15:47

mtllib ./Parasol_Stick.mtl
o Parasol_Stick

g Parasol_Stick
v -0.02 -0.5 0
v -0.02 0.5 0
v -0.009999999 -0.5 0.01732051
v -0.009999999 0.5 0.01732051
v 0.01 -0.5 0.01732051
v 0.01 0.5 0.01732051
v 0.02 -0.5 -1.748455E-09
v 0.02 0.5 -1.748455E-09
v 0.009999998 -0.5 -0.01732051
v 0.009999998 0.5 -0.01732051
v -0.009999998 -0.5 -0.01732051
v -0.009999998 0.5 -0.01732051
v 0 -0.5 0
v 0 0.5 0

vt -0.01 -0.5
vt -0.01 0.5
vt 0.01 -0.5
vt 0.01 0.5
vt -0.009999999 -0.5
vt -0.009999999 0.5
vt 0.01 -0.5
vt 0.01 0.5
vt -0.02 0
vt 0 0
vt -0.009999999 0.01732051
vt 0.02 0
vt 0.009999999 0.01732051
vt 0.01 0.01732051
vt -0.01 0.01732051
vt 0.009999998 -0.01732051
vt -0.009999998 -0.01732051

vn -1 0 -3.441276E-08
vn -0.5000001 0 0.8660254
vn 0.5000001 0 0.8660253
vn 1 0 -1.204446E-07
vn 0.4999999 0 -0.8660254
vn -0.5 0 -0.8660254
vn 0 -1 0
vn 0 1 0

usemtl 柄
f 1/9/7 13/10/7 3/11/7
f 3/11/7 13/10/7 5/14/7
f 5/14/7 13/10/7 7/12/7
f 7/12/7 13/10/7 9/16/7
f 9/16/7 13/10/7 11/17/7
f 11/17/7 13/10/7 1/9/7
f 4/13/8 14/10/8 2/12/8
f 6/15/8 14/10/8 4/13/8
f 8/9/8 14/10/8 6/15/8
f 10/17/8 14/10/8 8/9/8
f 12/16/8 14/10/8 10/17/8
f 2/12/8 14/10/8 12/16/8
f 4/4/2 2/2/1 1/1/1
f 1/1/1 3/3/2 4/4/2
f 6/4/3 4/6/2 3/5/2
f 3/5/2 5/3/3 6/4/3
f 8/8/4 6/2/3 5/1/3
f 5/1/3 7/7/4 8/8/4
f 10/8/5 8/2/4 7/1/4
f 7/1/4 9/7/5 10/8/5
f 12/8/6 10/6/5 9/5/5
f 9/5/5 11/7/6 12/8/6
f 2/4/1 12/6/6 11/5/6
f 11/5/6 1/3/1 2/4/1

